name ./resultDataOpenSim/trcMotMarkerGrf/sub09/grf-03-08.mot
datacolumns 19
datarows 25
range 1.45200000 1.54800000
endheader

                time	     ground_force_vx	     ground_force_vy	     ground_force_vz	     ground_force_px	     ground_force_py	     ground_force_pz	   l_ground_force_vx	   l_ground_force_vy	   l_ground_force_vz	   l_ground_force_px	   l_ground_force_py	   l_ground_force_pz	     ground_torque_x	     ground_torque_y	     ground_torque_z	   l_ground_torque_x	   l_ground_torque_y	   l_ground_torque_z	
          1.45200000	        -54.96281204	        479.65651726	        -15.08569961	          1.00892920	          0.00000000	          0.13827555	          0.00000000	          0.00000000	          0.00000000	          0.00000000	          0.00000000	          0.00000000	          0.00000000	          2.82035217	          0.00000000	          0.00000000	          0.00000000	          0.00000000	
          1.45600000	        -53.69278305	        473.64554000	        -16.34584877	          1.01096165	          0.00000000	          0.13838229	          0.00000000	          0.00000000	          0.00000000	          0.00000000	          0.00000000	          0.00000000	          0.00000000	          2.82323718	          0.00000000	          0.00000000	          0.00000000	          0.00000000	
          1.46000000	        -50.75143851	        468.04217280	        -18.38245588	          1.01257319	          0.00000000	          0.13850449	          0.00000000	          0.00000000	          0.00000000	          0.00000000	          0.00000000	          0.00000000	          0.00000000	          2.66443055	          0.00000000	          0.00000000	          0.00000000	          0.00000000	
          1.46400000	        -46.49463437	        462.86513950	        -20.74159501	          1.01381006	          0.00000000	          0.13861377	          0.00000000	          0.00000000	          0.00000000	          0.00000000	          0.00000000	          0.00000000	          0.00000000	          2.38541771	          0.00000000	          0.00000000	          0.00000000	          0.00000000	
          1.46800000	        -41.64886609	        458.09423572	        -22.96795988	          1.01479135	          0.00000000	          0.13868952	          0.00000000	          0.00000000	          0.00000000	          0.00000000	          0.00000000	          0.00000000	          0.00000000	          2.05202442	          0.00000000	          0.00000000	          0.00000000	          0.00000000	
          1.47200000	        -37.10803199	        453.66442726	        -24.66986861	          1.01567352	          0.00000000	          0.13872085	          0.00000000	          0.00000000	          0.00000000	          0.00000000	          0.00000000	          0.00000000	          0.00000000	          1.74051417	          0.00000000	          0.00000000	          0.00000000	          0.00000000	
          1.47600000	        -33.69270601	        449.49267509	        -25.57129306	          1.01659368	          0.00000000	          0.13870274	          0.00000000	          0.00000000	          0.00000000	          0.00000000	          0.00000000	          0.00000000	          0.00000000	          1.52124503	          0.00000000	          0.00000000	          0.00000000	          0.00000000	
          1.48000000	        -31.93368163	        445.51403574	        -25.54789050	          1.01764856	          0.00000000	          0.13862360	          0.00000000	          0.00000000	          0.00000000	          0.00000000	          0.00000000	          0.00000000	          0.00000000	          1.44329622	          0.00000000	          0.00000000	          0.00000000	          0.00000000	
          1.48400000	        -31.93255618	        441.69687103	        -24.63856013	          1.01886986	          0.00000000	          0.13846725	          0.00000000	          0.00000000	          0.00000000	          0.00000000	          0.00000000	          0.00000000	          0.00000000	          1.52376980	          0.00000000	          0.00000000	          0.00000000	          0.00000000	
          1.48800000	        -33.34066378	        438.02468452	        -23.02971052	          1.02021344	          0.00000000	          0.13822063	          0.00000000	          0.00000000	          0.00000000	          0.00000000	          0.00000000	          0.00000000	          0.00000000	          1.74470804	          0.00000000	          0.00000000	          0.00000000	          0.00000000	
          1.49200000	        -35.46664247	        434.47214806	        -21.01562989	          1.02160408	          0.00000000	          0.13789837	          0.00000000	          0.00000000	          0.00000000	          0.00000000	          0.00000000	          0.00000000	          0.00000000	          2.05862795	          0.00000000	          0.00000000	          0.00000000	          0.00000000	
          1.49600000	        -37.47072236	        431.02554083	        -18.94053986	          1.02293092	          0.00000000	          0.13753782	          0.00000000	          0.00000000	          0.00000000	          0.00000000	          0.00000000	          0.00000000	          0.00000000	          2.40121563	          0.00000000	          0.00000000	          0.00000000	          0.00000000	
          1.50000000	        -38.57978562	        427.73325768	        -17.13581308	          1.02407008	          0.00000000	          0.13716741	          0.00000000	          0.00000000	          0.00000000	          0.00000000	          0.00000000	          0.00000000	          0.00000000	          2.70772747	          0.00000000	          0.00000000	          0.00000000	          0.00000000	
          1.50400000	        -38.27025471	        424.70973844	        -15.86579719	          1.02490528	          0.00000000	          0.13680051	          0.00000000	          0.00000000	          0.00000000	          0.00000000	          0.00000000	          0.00000000	          0.00000000	          2.92872202	          0.00000000	          0.00000000	          0.00000000	          0.00000000	
          1.50800000	        -36.38363151	        422.07434580	        -15.28803971	          1.02539780	          0.00000000	          0.13644209	          0.00000000	          0.00000000	          0.00000000	          0.00000000	          0.00000000	          0.00000000	          0.00000000	          3.04102999	          0.00000000	          0.00000000	          0.00000000	          0.00000000	
          1.51200000	        -33.15098920	        419.89540473	        -15.43526342	          1.02560191	          0.00000000	          0.13612147	          0.00000000	          0.00000000	          0.00000000	          0.00000000	          0.00000000	          0.00000000	          0.00000000	          3.05134304	          0.00000000	          0.00000000	          0.00000000	          0.00000000	
          1.51600000	        -29.11977139	        418.19752565	        -16.22178876	          1.02562520	          0.00000000	          0.13587413	          0.00000000	          0.00000000	          0.00000000	          0.00000000	          0.00000000	          0.00000000	          0.00000000	          2.99203862	          0.00000000	          0.00000000	          0.00000000	          0.00000000	
          1.52000000	        -25.00122439	        417.00610891	        -17.47052908	          1.02558142	          0.00000000	          0.13570583	          0.00000000	          0.00000000	          0.00000000	          0.00000000	          0.00000000	          0.00000000	          0.00000000	          2.91096356	          0.00000000	          0.00000000	          0.00000000	          0.00000000	
          1.52400000	        -21.47374102	        416.37069405	        -18.95388422	          1.02558342	          0.00000000	          0.13559327	          0.00000000	          0.00000000	          0.00000000	          0.00000000	          0.00000000	          0.00000000	          0.00000000	          2.85828446	          0.00000000	          0.00000000	          0.00000000	          0.00000000	
          1.52800000	        -18.99364216	        416.34938075	        -20.43711638	          1.02570934	          0.00000000	          0.13550014	          0.00000000	          0.00000000	          0.00000000	          0.00000000	          0.00000000	          0.00000000	          0.00000000	          2.87402221	          0.00000000	          0.00000000	          0.00000000	          0.00000000	
          1.53200000	        -17.67426954	        416.98116624	        -21.71686757	          1.02598096	          0.00000000	          0.13539753	          0.00000000	          0.00000000	          0.00000000	          0.00000000	          0.00000000	          0.00000000	          0.00000000	          2.97941575	          0.00000000	          0.00000000	          0.00000000	          0.00000000	
          1.53600000	        -17.27289755	        418.27642491	        -22.65013729	          1.02636375	          0.00000000	          0.13527220	          0.00000000	          0.00000000	          0.00000000	          0.00000000	          0.00000000	          0.00000000	          0.00000000	          3.17389090	          0.00000000	          0.00000000	          0.00000000	          0.00000000	
          1.54000000	        -17.28184432	        420.22097087	        -23.16962835	          1.02678701	          0.00000000	          0.13511980	          0.00000000	          0.00000000	          0.00000000	          0.00000000	          0.00000000	          0.00000000	          0.00000000	          3.43764202	          0.00000000	          0.00000000	          0.00000000	          0.00000000	
          1.54400000	        -17.08132541	        422.77681763	        -23.28882824	          1.02716633	          0.00000000	          0.13493526	          0.00000000	          0.00000000	          0.00000000	          0.00000000	          0.00000000	          0.00000000	          0.00000000	          3.73839693	          0.00000000	          0.00000000	          0.00000000	          0.00000000	
          1.54800000	        -16.10644283	        425.88597341	        -23.09973977	          1.02743372	          0.00000000	          0.13471753	          0.00000000	          0.00000000	          0.00000000	          0.00000000	          0.00000000	          0.00000000	          0.00000000	          4.04028202	          0.00000000	          0.00000000	          0.00000000	          0.00000000	
